<svg width="12" height="12" viewBox="0 0 12 12" fill="none" xmlns="http://www.w3.org/2000/svg">
<path d="M2 1C2 0.734784 2.10536 0.48043 2.2929 0.292893C2.48043 0.105357 2.73479 0 3 0H11C11.2652 0 11.5196 0.105357 11.7071 0.292893C11.8946 0.48043 12 0.734784 12 1V9C12 9.26522 11.8946 9.51957 11.7071 9.70711C11.5196 9.89464 11.2652 10 11 10C10.7348 10 10.4804 9.89464 10.2929 9.70711C10.1054 9.51957 10 9.26522 10 9V3.414L1.707 11.707C1.5184 11.8892 1.2658 11.99 1.0036 11.9877C0.741405 11.9854 0.490593 11.8802 0.305184 11.6948C0.119776 11.5094 0.0146072 11.2586 0.0123288 10.9964C0.0100503 10.7342 0.110845 10.4816 0.293003 10.293L8.586 2H3C2.73479 2 2.48043 1.89464 2.2929 1.70711C2.10536 1.51957 2 1.26522 2 1Z" fill="#242424"/>
</svg>
