<svg width="20" height="20" viewBox="0 0 20 20" fill="none" xmlns="http://www.w3.org/2000/svg">
<path d="M19.6499 9.69704C19.6499 15.0526 15.3084 19.3941 9.9529 19.3941C4.59737 19.3941 0.255859 15.0526 0.255859 9.69704C0.255859 4.34151 4.59737 0 9.9529 0C15.3084 0 19.6499 4.34151 19.6499 9.69704Z" fill="white"/>
<path d="M9.9548 0C4.60031 0 0.259766 4.34055 0.259766 9.69503C0.259766 12.0282 1.08443 14.169 2.45767 15.8418C2.66954 14.1454 4.36387 12.7107 6.73972 12.0312C7.6077 12.84 8.72888 13.3307 9.95473 13.3307C11.1518 13.3307 12.251 12.8647 13.1101 12.0899C15.5065 12.8287 17.1644 14.3473 17.219 16.1124C18.7304 14.4025 19.6498 12.1568 19.6498 9.69503C19.6498 4.34055 15.3092 0 9.9548 0ZM9.9548 12.1825C9.33589 12.1825 8.75271 12.0125 8.23488 11.718C6.98699 11.0079 6.12778 9.55481 6.12778 7.87715C6.12778 5.50317 7.84452 3.57171 9.9548 3.57171C12.0653 3.57171 13.7818 5.50317 13.7818 7.87715C13.7818 9.58057 12.8957 11.0516 11.6168 11.7494C11.1129 12.0241 10.5507 12.1825 9.9548 12.1825Z" fill="#DDDDDD"/>
</svg>
