<svg width="48" height="48" viewBox="0 0 48 48" fill="none" xmlns="http://www.w3.org/2000/svg">
<g clip-path="url(#clip0_999_2658)">
<circle cx="24" cy="24" r="24" fill="#4BC160"/>
<path d="M30.4004 11.2002C32.0804 11.2002 32.9208 11.2004 33.5625 11.5273C34.1269 11.8149 34.5864 12.2735 34.874 12.8379C35.201 13.4796 35.2012 14.32 35.2012 16V36.7998L30.5068 34.7881C30.1688 34.6432 29.9993 34.5705 29.8242 34.5195C29.6687 34.4742 29.5095 34.4415 29.3486 34.4219C29.1676 34.3998 28.9832 34.4004 28.6152 34.4004H17.6006C15.9206 34.4004 15.0802 34.4002 14.4385 34.0732C13.8741 33.7856 13.4155 33.3261 13.1279 32.7617C12.8011 32.1201 12.8008 31.2802 12.8008 29.6006V16C12.8008 14.32 12.801 13.4796 13.1279 12.8379C13.4155 12.2737 13.8743 11.8149 14.4385 11.5273C15.0802 11.2004 15.9206 11.2002 17.6006 11.2002H30.4004ZM31.7656 27.0342C31.4534 26.722 30.9472 26.7215 30.6348 27.0332L30.5605 27.1006C30.4997 27.1538 30.4025 27.2352 30.2695 27.335C30.0035 27.5345 29.5941 27.8079 29.042 28.084C27.9398 28.6351 26.2617 29.2002 24 29.2002C21.7383 29.2002 20.0602 28.6351 18.958 28.084C18.4059 27.8079 17.9965 27.5345 17.7305 27.335C17.5975 27.2352 17.5003 27.1538 17.4395 27.1006L17.3633 27.0322C17.0507 26.7225 16.5459 26.7226 16.2344 27.0342C15.922 27.3465 15.9222 27.8526 16.2344 28.165C16.2596 28.1887 16.3411 28.2656 16.3857 28.3047C16.4749 28.3827 16.6025 28.49 16.7695 28.6152C17.1035 28.8657 17.5946 29.1918 18.2422 29.5156C19.54 30.1645 21.4618 30.7998 24 30.7998C26.5382 30.7998 28.46 30.1645 29.7578 29.5156C30.4054 29.1918 30.8965 28.8657 31.2305 28.6152C31.3975 28.49 31.5251 28.3827 31.6143 28.3047L31.7656 28.165C32.0778 27.8526 32.078 27.3465 31.7656 27.0342Z" fill="white"/>
</g>
<defs>
<clipPath id="clip0_999_2658">
<rect width="48" height="48" fill="white"/>
</clipPath>
</defs>
</svg>
