<svg width="17" height="18" viewBox="0 0 17 18" fill="none" xmlns="http://www.w3.org/2000/svg">
<path fill-rule="evenodd" clip-rule="evenodd" d="M9.29632 0.993338C8.6373 0.668888 7.8627 0.668887 7.20368 0.993338L0.639667 4.2251C-0.21322 4.64501 -0.213225 5.85498 0.639667 6.2749L7.20368 9.50663C7.8627 9.83115 8.6373 9.83115 9.29632 9.5067L15.8603 6.2749C16.7132 5.85499 16.7132 4.64502 15.8603 4.2251L9.29632 0.993338ZM0.677325 7.95653C0.78177 7.90508 0.90417 7.90508 1.00861 7.95653L7.20368 11.0066C7.8627 11.3311 8.6373 11.3311 9.29632 11.0066L15.4914 7.95653C15.5958 7.90508 15.7182 7.90508 15.8227 7.95653L15.8603 7.97505C16.7132 8.39498 16.7132 9.60495 15.8603 10.0249L9.29632 13.2566C8.6373 13.5811 7.8627 13.5811 7.20368 13.2566L0.639667 10.0249C-0.213225 9.60495 -0.21322 8.39498 0.639667 7.97505L0.677325 7.95653ZM1.00861 11.7066C0.90417 11.6552 0.78177 11.6552 0.677325 11.7066L0.639667 11.7251C-0.21322 12.1451 -0.213225 13.355 0.639667 13.775L7.20368 17.0067C7.8627 17.3312 8.6373 17.3312 9.29632 17.0067L15.8603 13.775C16.7132 13.355 16.7132 12.1451 15.8603 11.7251L15.8227 11.7066C15.7182 11.6552 15.5958 11.6552 15.4914 11.7066L9.29632 14.7567C8.6373 15.0812 7.8627 15.0812 7.20368 14.7567L1.00861 11.7066Z" fill="#242424"/>
</svg>
