<svg width="19" height="18" viewBox="0 0 19 18" fill="none" xmlns="http://www.w3.org/2000/svg">
<path d="M14 1.5C15.6545 1.5 17 2.8455 17 4.5V13.5C17 15.1545 15.6545 16.5 14 16.5H5C3.3455 16.5 2 15.1545 2 13.5V4.5C2 2.8455 3.3455 1.5 5 1.5H14ZM14 0H5C2.5145 0 0.5 2.0145 0.5 4.5V13.5C0.5 15.9855 2.5145 18 5 18H14C16.4855 18 18.5 15.9855 18.5 13.5V4.5C18.5 2.0145 16.4855 0 14 0Z" fill="#242424"/>
<path d="M9.5 13.5C9.086 13.5 8.75 13.1647 8.75 12.75V5.25C8.75 4.836 9.086 4.5 9.5 4.5C9.914 4.5 10.25 4.836 10.25 5.25V12.75C10.25 13.1647 9.914 13.5 9.5 13.5Z" fill="#242424"/>
<path d="M5 9C5 8.586 5.33525 8.25 5.75 8.25H13.25C13.664 8.25 14 8.586 14 9C14 9.414 13.664 9.75 13.25 9.75H5.75C5.33525 9.75 5 9.414 5 9Z" fill="#242424"/>
</svg>
