<svg width="12" height="12" viewBox="0 0 12 12" fill="none" xmlns="http://www.w3.org/2000/svg">
<path d="M11.8337 5.58317V6.4165C11.8337 6.64662 11.6471 6.83317 11.417 6.83317H6.83366V11.4165C6.83366 11.6466 6.64711 11.8332 6.41699 11.8332H5.58366C5.35354 11.8332 5.16699 11.6466 5.16699 11.4165V6.83317H0.583659C0.35354 6.83317 0.166992 6.64662 0.166992 6.4165V5.58317C0.166992 5.35305 0.35354 5.1665 0.583659 5.1665H5.16699V0.583171C5.16699 0.353052 5.35354 0.166504 5.58366 0.166504H6.41699C6.64711 0.166504 6.83366 0.353052 6.83366 0.583171V5.1665H11.417C11.6471 5.1665 11.8337 5.35305 11.8337 5.58317Z" fill="#242424"/>
</svg>
