<svg width="24" height="25" viewBox="0 0 24 25" fill="none" xmlns="http://www.w3.org/2000/svg">
<path fill-rule="evenodd" clip-rule="evenodd" d="M23.5939 1.86085L23.021 1.28792C22.7141 0.970656 22.2701 0.825957 21.8352 0.90153L14.5073 2.23392C13.2654 2.45655 12.1474 3.12452 11.3629 4.11259L8.48501 7.81663C6.79656 7.21159 4.91183 7.80535 3.87505 9.26894L0.117809 14.5985C-0.088258 14.8973 -0.0171633 15.3061 0.277691 15.5178L0.823957 15.9042C1.69304 16.5126 2.76832 16.7506 3.81294 16.5656C4.85755 16.3807 5.7858 15.7881 6.39321 14.9183L7.23259 13.7324L11.1097 17.6097L9.92395 18.4491C9.05419 19.0565 8.46157 19.9848 8.27664 21.0294C8.09171 22.0741 8.32964 23.1494 8.93801 24.0185L9.32439 24.5648C9.5361 24.8596 9.94489 24.9307 10.2437 24.7247L15.5731 20.9673C17.0367 19.9305 17.6304 18.0457 17.0254 16.3573L20.6894 13.4793C21.6991 12.718 22.3957 11.6139 22.6479 10.3748L23.9803 3.04668C24.0559 2.6118 23.9112 2.16772 23.5939 1.86085ZM18.0649 9.6417C17.4936 10.2138 16.6338 10.3853 15.8866 10.0761C15.1395 9.76686 14.6523 9.03795 14.6523 8.22937C14.6523 7.42079 15.1395 6.69188 15.8866 6.38268C16.6338 6.07348 17.4936 6.24493 18.0649 6.81704C18.4425 7.19002 18.655 7.69865 18.655 8.22937C18.655 8.7601 18.4425 9.26872 18.0649 9.6417ZM6.61719 19.8681C6.61719 19.6904 6.54625 19.5201 6.42013 19.3951L5.48748 18.4624C5.3624 18.3363 5.19213 18.2653 5.0145 18.2653C4.83687 18.2653 4.6666 18.3363 4.54151 18.4624L0.198031 22.806C0.071915 22.9311 0.000976567 23.1013 0.000976567 23.279C0.000976567 23.4566 0.071915 23.6269 0.198031 23.752L1.13068 24.6846C1.25577 24.8108 1.42604 24.8817 1.60367 24.8817C1.78129 24.8817 1.95157 24.8108 2.07665 24.6846L6.42013 20.3411C6.54625 20.216 6.61719 20.0457 6.61719 19.8681Z" fill="#777777"/>
</svg>
