<svg width="24" height="20" viewBox="0 0 24 20" fill="none" xmlns="http://www.w3.org/2000/svg">
<path d="M10 5.00176V0.749758C10 0.448758 9.819 0.176758 9.542 0.0587583C9.266 -0.0582417 8.943 0.000758171 8.728 0.211758L0.228 8.46176C0.082 8.60276 0 8.79676 0 8.99976C0 9.20276 0.082 9.39676 0.228 9.53776L8.728 17.7878C8.945 17.9978 9.267 18.0568 9.542 17.9408C9.819 17.8228 10 17.5508 10 17.2498V12.9998H11.418C16.054 12.9998 20.328 15.5198 22.571 19.5718L22.592 19.6098C22.726 19.8538 22.98 19.9998 23.25 19.9998C23.312 19.9998 23.374 19.9928 23.436 19.9768C23.768 19.8918 24 19.5928 24 19.2498C24 11.4758 17.743 5.13576 10 5.00176Z" fill="#777777"/>
</svg>
