<svg width="26" height="18" viewBox="0 0 26 18" fill="none" xmlns="http://www.w3.org/2000/svg">
<path d="M25.3322 2.12925C25.333 2.40895 25.2783 2.68602 25.1712 2.94443C25.0642 3.20283 24.907 3.43745 24.7087 3.63469L11.2837 17.0597C10.6798 17.6619 9.86181 18 9.00903 18C8.15625 18 7.33826 17.6619 6.73437 17.0597L0.628932 10.9543C0.430078 10.7568 0.27216 10.522 0.164234 10.2634C0.0563077 10.0048 0.00049731 9.72743 3.30845e-06 9.44719C-0.000490693 9.16696 0.0543414 8.88939 0.161355 8.63039C0.268368 8.3714 0.425458 8.13607 0.623614 7.93792C0.821771 7.73977 1.0571 7.58268 1.31609 7.47567C1.57509 7.36866 1.85267 7.31383 2.1329 7.31433C2.41313 7.31483 2.69051 7.37065 2.94912 7.47858C3.20774 7.58651 3.4425 7.74443 3.63995 7.94329L9.00903 13.3124L21.6978 0.623663C21.9956 0.325876 22.3749 0.123076 22.7879 0.0409155C23.201 -0.0412455 23.6291 0.000922918 24.0181 0.162087C24.4071 0.323251 24.7396 0.596171 24.9736 0.946327C25.2075 1.29648 25.3323 1.70815 25.3322 2.12925Z" fill="#777777"/>
</svg>
