<svg width="24" height="24" viewBox="0 0 24 24" fill="none" xmlns="http://www.w3.org/2000/svg">
<mask id="mask0_576_900" style="mask-type:luminance" maskUnits="userSpaceOnUse" x="0" y="0" width="24" height="24">
<path d="M0 0H24V24H0V0Z" fill="white"/>
</mask>
<g mask="url(#mask0_576_900)">
<path fill-rule="evenodd" clip-rule="evenodd" d="M11.9963 0.0795918C13.7902 0.0785726 15.5612 0.482451 17.1773 1.26113C18.7935 2.03983 20.2131 3.1733 21.3303 4.57701C22.4473 5.98071 23.2333 7.61847 23.6293 9.36819C24.0255 11.1179 24.0214 12.9345 23.6178 14.6825C23.2141 16.4305 22.4211 18.0648 21.2977 19.4636C20.1745 20.8625 18.75 21.9896 17.1305 22.7614C15.5109 23.533 13.7381 23.9292 11.9441 23.9203C10.2454 23.9119 8.56921 23.5405 7.02752 22.8324L1.08584 23.9067C0.78227 23.9616 0.472615 23.8491 0.275038 23.6122C0.0774625 23.3753 0.0224476 23.0504 0.130986 22.7617L1.83538 18.2271C0.78907 16.5191 0.18869 14.5728 0.093136 12.5673C-0.00948602 10.4135 0.474009 8.27223 1.49212 6.3715C2.51024 4.47077 4.02485 2.88178 5.87463 1.77379C7.72433 0.665825 9.84017 0.0803102 11.9963 0.0795918ZM6.47352 11.9973L6.47431 12L6.47352 12.0026L6.47256 12.0043L6.47088 12.0053L6.46822 12.0061L6.46558 12.0053L6.4639 12.0043L6.46294 12.0026L6.46215 12L6.46294 11.9973L6.4639 11.9957L6.46558 11.9947L6.46822 11.9939L6.47088 11.9947L6.47256 11.9957L6.47352 11.9973ZM6.46822 10.2918C5.52483 10.2918 4.76007 11.0566 4.76007 12C4.76007 12.9434 5.52483 13.7081 6.46822 13.7081C7.41163 13.7081 8.17638 12.9434 8.17638 12C8.17638 11.0566 7.41163 10.2918 6.46822 10.2918ZM12.0059 12L12.0051 11.9973L12.0042 11.9957L12.0025 11.9947L11.9999 11.9939L11.9972 11.9947L11.9955 11.9957L11.9946 11.9973L11.9938 12L11.9946 12.0026L11.9955 12.0043L11.9972 12.0053L11.9999 12.0061L12.0025 12.0053L12.0042 12.0043L12.0051 12.0026L12.0059 12ZM10.2917 12C10.2917 11.0566 11.0565 10.2918 11.9999 10.2918C12.9432 10.2918 13.708 11.0566 13.708 12C13.708 12.9434 12.9432 13.7081 11.9999 13.7081C11.0565 13.7081 10.2917 12.9434 10.2917 12ZM17.5368 11.9973L17.5376 12L17.5368 12.0026L17.5357 12.0043L17.5342 12.0053L17.5314 12.0061L17.5289 12.0053L17.5272 12.0043L17.5261 12.0026L17.5254 12L17.5261 11.9973L17.5272 11.9957L17.5289 11.9947L17.5314 11.9939L17.5342 11.9947L17.5357 11.9957L17.5368 11.9973ZM17.5314 10.2918C16.5881 10.2918 15.8233 11.0566 15.8233 12C15.8233 12.9434 16.5881 13.7081 17.5314 13.7081C18.4748 13.7081 19.2396 12.9434 19.2396 12C19.2396 11.0566 18.4748 10.2918 17.5314 10.2918Z" fill="#777777"/>
</g>
</svg>
