<svg width="4" height="16" viewBox="0 0 4 16" fill="none" xmlns="http://www.w3.org/2000/svg">
<path fill-rule="evenodd" clip-rule="evenodd" d="M0.166748 2.49984C0.166748 1.48732 0.987559 0.666504 2.00008 0.666504C3.0126 0.666504 3.83341 1.48732 3.83341 2.49984C3.83341 3.51236 3.0126 4.33317 2.00008 4.33317C0.987559 4.33317 0.166748 3.51236 0.166748 2.49984ZM2.00008 6.1665C0.98756 6.1665 0.166748 6.98731 0.166748 7.99984C0.166748 9.01236 0.98756 9.83317 2.00008 9.83317C3.0126 9.83317 3.83342 9.01236 3.83342 7.99984C3.83342 6.98731 3.0126 6.1665 2.00008 6.1665ZM0.166748 13.4998C0.166748 12.4873 0.98756 11.6665 2.00008 11.6665C3.0126 11.6665 3.83342 12.4873 3.83342 13.4998C3.83342 14.5124 3.0126 15.3332 2.00008 15.3332C0.98756 15.3332 0.166748 14.5124 0.166748 13.4998Z" fill="#777777"/>
</svg>
