<svg width="45" height="45" viewBox="0 0 45 45" fill="none" xmlns="http://www.w3.org/2000/svg">
<g clip-path="url(#clip0_1056_2516)">
<path d="M31.5653 8.04339H35.9685V0.00440458H27.9666C27.2991 -0.0233703 19.1619 -0.178909 17.0529 7.86378C17.0223 7.94803 16.3483 9.8608 16.3483 14.3289L9.03149 14.3511V22.7826L16.3576 22.7613V45.0007H27.5481V22.7808H34.9548V14.327H27.5481V11.6671C27.5481 10.0136 28.2453 8.04339 31.5653 8.04339ZM33.1031 16.1777V20.9282H25.6964V43.1481H18.2093V20.9041L10.8832 20.9254V16.1972L18.2287 16.1759L18.2093 15.2343C18.113 10.5015 18.7879 8.51094 18.8185 8.41558C20.6386 1.48851 27.5888 1.83662 27.887 1.85514L34.1169 1.85699V6.19266H31.5653C27.2389 6.19266 25.6974 9.02014 25.6974 11.6662V16.1777H33.1031Z" fill="#242424"/>
</g>
<defs>
<clipPath id="clip0_1056_2516">
<rect width="45" height="45" fill="white"/>
</clipPath>
</defs>
</svg>
