<svg width="17" height="17" viewBox="0 0 17 17" fill="none" xmlns="http://www.w3.org/2000/svg">
<path d="M12.1424 15.7858H4.85672C2.85315 15.7858 1.21387 14.1465 1.21387 12.1429V4.85721C1.21387 2.85364 2.85315 1.21436 4.85672 1.21436H9.10672H12.1424C14.146 1.21436 15.7853 2.85364 15.7853 4.85721V12.1429C15.7853 14.1465 14.146 15.7858 12.1424 15.7858ZM2.42815 6.0715V12.1429C2.42815 13.4786 3.52101 14.5715 4.85672 14.5715H12.1424C13.4782 14.5715 14.571 13.4786 14.571 12.1429V6.0715H2.42815ZM11.8389 4.85721H14.571C14.571 3.5215 13.4782 2.42864 12.1424 2.42864H10.2603L11.8389 4.85721ZM7.58887 4.85721H10.3817L8.74244 2.42864H6.0103L7.58887 4.85721ZM2.42815 4.85721H6.13172L4.55315 2.42864C3.33887 2.61078 2.42815 3.64293 2.42815 4.85721ZM7.89244 9.59293V11.1108L9.16744 10.3822L7.89244 9.59293ZM7.2853 12.7501C6.98172 12.7501 6.67815 12.4465 6.67815 12.1429V8.50007C6.67815 8.25721 6.79958 8.07507 6.98172 7.95364C7.16387 7.83221 7.40672 7.83221 7.58887 7.95364L10.6246 9.77507C10.8067 9.8965 10.9282 10.0786 10.9282 10.3215C10.9282 10.5644 10.8067 10.7465 10.6246 10.8679L7.58887 12.6894C7.52815 12.7501 7.40672 12.7501 7.2853 12.7501Z" fill="white"/>
</svg>
