<svg width="14" height="14" viewBox="0 0 14 14" fill="none" xmlns="http://www.w3.org/2000/svg">
<path fill-rule="evenodd" clip-rule="evenodd" d="M0.333328 7.00016C0.333328 3.31826 3.3181 0.333496 7 0.333496C8.76811 0.333496 10.4638 1.03588 11.714 2.28612C12.9643 3.53636 13.6667 5.23205 13.6667 7.00016C13.6667 10.6821 10.6819 13.6668 7 13.6668C3.3181 13.6668 0.333328 10.6821 0.333328 7.00016ZM1.66666 7.00016C1.66666 9.94568 4.05448 12.3335 6.99999 12.3335C8.41448 12.3335 9.77104 11.7716 10.7712 10.7714C11.7714 9.7712 12.3333 8.41465 12.3333 7.00016C12.3333 4.05464 9.94551 1.66683 6.99999 1.66683C4.05448 1.66683 1.66666 4.05464 1.66666 7.00016ZM7.66666 7.3335C7.66666 7.1494 7.51742 7.00016 7.33333 7.00016H6.66666C6.48257 7.00016 6.33333 7.1494 6.33333 7.3335V9.3335C6.33333 9.51759 6.48257 9.66683 6.66666 9.66683H7.33333C7.51742 9.66683 7.66666 9.51759 7.66666 9.3335V7.3335ZM7.33333 4.3335C7.51742 4.3335 7.66666 4.48273 7.66666 4.66683V5.3335C7.66666 5.51759 7.51742 5.66683 7.33333 5.66683H6.66666C6.48257 5.66683 6.33333 5.51759 6.33333 5.3335V4.66683C6.33333 4.48273 6.48257 4.3335 6.66666 4.3335H7.33333Z" fill="#242424"/>
</svg>
