<svg width="20" height="16" viewBox="0 0 20 16" fill="none" xmlns="http://www.w3.org/2000/svg">
<path d="M2.49023 5.05037C3.92903 4.80295 5.33656 5.63092 5.82324 7.01033H8.00195C8.84922 7.01496 9.65488 7.37931 10.2197 8.01228C10.7169 8.56056 10.9945 9.27338 10.999 10.0142C10.999 11.1202 11.8936 12.0169 12.9971 12.0172H14.1768C14.6718 10.6505 16.0722 9.8354 17.502 10.0816C18.9317 10.3279 19.98 11.5651 19.9912 13.0191C19.9799 14.4731 18.9317 15.7103 17.502 15.9566C16.0721 16.2029 14.6716 15.387 14.1768 14.0201H12.9971C10.79 14.0199 9.00098 12.2264 9.00098 10.0142C9.00074 9.46146 8.5535 9.0134 8.00195 9.01326H5.82324C5.33659 10.3927 3.92906 11.2206 2.49023 10.9732C1.05167 10.7257 0.000213837 9.47518 0 8.01228C0 6.54919 1.05152 5.29791 2.49023 5.05037ZM16.9941 12.0172C16.4423 12.0172 15.9951 12.466 15.9951 13.0191C15.9952 13.5721 16.4424 14.0201 16.9941 14.0201C17.5459 14.0201 17.9931 13.5721 17.9932 13.0191C17.9932 12.4661 17.5459 12.0172 16.9941 12.0172ZM3.00586 7.01033C2.45406 7.01035 2.00684 7.45922 2.00684 8.01228C2.00708 8.56514 2.4542 9.01324 3.00586 9.01326C3.55753 9.01326 4.00464 8.56515 4.00488 8.01228C4.00488 7.45921 3.55768 7.01033 3.00586 7.01033ZM14.1768 2.00349C14.6634 0.623988 16.0709 -0.203895 17.5098 0.0435326C18.9484 0.291076 19.9999 1.5415 20 3.00447C20 4.46752 18.9484 5.71782 17.5098 5.96541C16.071 6.21282 14.6635 5.38573 14.1768 4.00642H12.9971C11.8936 4.00664 10.999 4.90335 10.999 6.00935V6.32967C10.434 5.86816 9.77075 5.54288 9.06055 5.37849C9.36929 3.43823 11.0368 2.00864 12.9971 2.00349H14.1768ZM16.9941 2.00349C16.4424 2.00349 15.9953 2.45152 15.9951 3.00447C15.9951 3.55754 16.4423 4.00642 16.9941 4.00642C17.5459 4.0064 17.9932 3.55753 17.9932 3.00447C17.993 2.45153 17.5459 2.00351 16.9941 2.00349Z" fill="#242424"/>
</svg>
