<svg width="40" height="42" viewBox="0 0 40 42" fill="none" xmlns="http://www.w3.org/2000/svg">
<path d="M20.246 18.8261C20.2168 18.7869 20.1794 18.7552 20.1368 18.7333C20.0941 18.7115 20.0473 18.7002 19.9999 18.7002C19.9525 18.7002 19.9057 18.7115 19.863 18.7333C19.8204 18.7552 19.783 18.7869 19.7538 18.8261L15.3788 24.638C15.3427 24.6864 15.3203 24.7444 15.3142 24.8055C15.3081 24.8666 15.3184 24.9282 15.3441 24.9834C15.3698 25.0386 15.4097 25.0851 15.4594 25.1176C15.509 25.1501 15.5664 25.1672 15.6249 25.1671H18.5116V35.1093C18.5116 35.2898 18.6522 35.4374 18.8241 35.4374H21.1679C21.3397 35.4374 21.4804 35.2898 21.4804 35.1093V25.1712H24.3749C24.6366 25.1712 24.7811 24.8554 24.621 24.6421L20.246 18.8261Z" fill="#FEBD32"/>
<path d="M31.6953 15.0404C29.9063 10.0857 25.3477 6.5625 20.0078 6.5625C14.668 6.5625 10.1094 10.0816 8.32031 15.0363C4.97266 15.9592 2.5 19.1625 2.5 22.9688C2.5 27.501 5.99609 31.1719 10.3086 31.1719H11.875C12.0469 31.1719 12.1875 31.0242 12.1875 30.8438V28.3828C12.1875 28.2023 12.0469 28.0547 11.875 28.0547H10.3086C8.99219 28.0547 7.75391 27.5051 6.83203 26.5084C5.91406 25.5158 5.42578 24.1787 5.46875 22.7924C5.50391 21.7096 5.85547 20.6924 6.49219 19.8352C7.14453 18.9615 8.05859 18.3258 9.07422 18.0428L10.5547 17.6367L11.0977 16.1355C11.4336 15.2004 11.9023 14.3268 12.4922 13.5352C13.0745 12.7506 13.7643 12.0608 14.5391 11.4885C16.1445 10.3031 18.0352 9.67559 20.0078 9.67559C21.9805 9.67559 23.8711 10.3031 25.4766 11.4885C26.2539 12.0627 26.9414 12.7518 27.5234 13.5352C28.1133 14.3268 28.582 15.2045 28.918 16.1355L29.457 17.6326L30.9336 18.0428C33.0508 18.6416 34.5312 20.6637 34.5312 22.9688C34.5312 24.3264 34.0273 25.6061 33.1133 26.5658C32.665 27.0393 32.1318 27.4146 31.5444 27.6702C30.957 27.9257 30.3272 28.0564 29.6914 28.0547H28.125C27.9531 28.0547 27.8125 28.2023 27.8125 28.3828V30.8438C27.8125 31.0242 27.9531 31.1719 28.125 31.1719H29.6914C34.0039 31.1719 37.5 27.501 37.5 22.9688C37.5 19.1666 35.0352 15.9674 31.6953 15.0404Z" fill="#FEBD32"/>
</svg>
