<svg width="37" height="41" viewBox="0 0 37 41" fill="none" xmlns="http://www.w3.org/2000/svg">
<path fill-rule="evenodd" clip-rule="evenodd" d="M17.6875 1.75C17.6875 1.23224 18.1073 0.8125 18.625 0.8125H24.25C24.7677 0.8125 25.1875 1.23224 25.1875 1.75C25.1875 7.44544 29.8045 12.0625 35.5 12.0625C36.0177 12.0625 36.4375 12.4822 36.4375 13V18.625C36.4375 19.1427 36.0177 19.5625 35.5 19.5625C31.6574 19.5625 28.0977 18.3449 25.1875 16.2753V28C25.1875 34.7311 19.7311 40.1875 13 40.1875C6.26903 40.1875 0.8125 34.7311 0.8125 28C0.8125 21.2689 6.26903 15.8125 13 15.8125C13.5178 15.8125 13.9375 16.2322 13.9375 16.75V22.375C13.9375 22.8927 13.5178 23.3125 13 23.3125C10.4112 23.3125 8.3125 25.4112 8.3125 28C8.3125 30.5888 10.4112 32.6875 13 32.6875C15.5888 32.6875 17.6875 30.5888 17.6875 28V1.75ZM19.5625 2.6875V28C19.5625 31.6244 16.6244 34.5625 13 34.5625C9.37562 34.5625 6.4375 31.6244 6.4375 28C6.4375 24.694 8.88222 21.9589 12.0625 21.5039V17.7295C6.80641 18.2031 2.6875 22.6206 2.6875 28C2.6875 33.6955 7.30456 38.3125 13 38.3125C18.6955 38.3125 23.3125 33.6955 23.3125 28V14.3281C23.3125 13.9583 23.5298 13.6231 23.8675 13.4722C24.205 13.3213 24.5997 13.3829 24.8753 13.6295C27.478 15.9591 30.8491 17.4451 34.5625 17.6603V13.902C28.579 13.4468 23.8032 8.671 23.3479 2.6875H19.5625Z" fill="#242424"/>
</svg>
