<svg width="24" height="24" viewBox="0 0 24 24" fill="none" xmlns="http://www.w3.org/2000/svg">
<path d="M13.6123 7.02441C13.7451 7.02454 13.8723 7.07753 13.9658 7.17188L16.8193 9.98633C17.0094 10.1804 17.0094 10.4906 16.8193 10.6846L8.77832 18.7588C8.58548 18.9534 8.35407 19.1055 8.09961 19.207L3.76953 20.9639C3.58422 21.0385 3.37187 20.9956 3.23047 20.8545C3.02401 20.7227 2.94381 20.4602 3.04102 20.2354L4.75684 15.9043C4.8583 15.6497 5.01143 15.4185 5.20605 15.2256L13.2578 7.17188C13.3515 7.07741 13.4793 7.02441 13.6123 7.02441ZM18.8447 3C19.2415 3.00035 19.622 3.15863 19.9023 3.43945L20.5605 4.09766C20.8413 4.37813 20.9997 4.75936 21 5.15625V5.91406C21.005 6.31786 20.8462 6.70685 20.5605 6.99219L18.7148 8.80859C18.6213 8.90282 18.4941 8.95595 18.3613 8.95605C18.2284 8.95605 18.1005 8.90297 18.0068 8.80859L15.2031 5.96387C15.0132 5.76985 15.0131 5.45961 15.2031 5.26562L17.0088 3.43945C17.2941 3.1537 17.6832 2.995 18.0869 3H18.8447Z" fill="#777777"/>
</svg>
