<svg width="45" height="45" viewBox="0 0 45 45" fill="none" xmlns="http://www.w3.org/2000/svg">
<path d="M38.7808 12.0987L26.9426 0.260508C26.7758 0.0936914 26.5496 0 26.3137 0H9.63254C7.60675 0 5.9588 1.64804 5.9588 3.67383V41.3262C5.9588 43.352 7.60675 45 9.63254 45H35.3674C37.3931 45 39.0412 43.352 39.0412 41.3262V12.7275C39.0412 12.4917 38.9475 12.2654 38.7808 12.0987ZM27.2031 3.03653L36.0047 11.838H29.0981C28.0532 11.838 27.2032 10.9879 27.2032 9.94289V3.03653H27.2031ZM37.2625 41.3262C37.2625 42.3711 36.4124 43.2213 35.3674 43.2213H9.63254C8.58761 43.2213 7.73762 42.3711 7.73762 41.3262V3.67383C7.73762 2.6289 8.58779 1.77873 9.63254 1.77873H25.4243V9.94307C25.4243 11.9689 27.0722 13.6169 29.098 13.6169H37.2625V41.3262Z" fill="#242424"/>
<path d="M29.3478 22.4111H15.6522C15.1609 22.4111 14.7628 22.8094 14.7628 23.3005V35.2175C14.7628 35.7086 15.1609 36.1069 15.6522 36.1069H29.3478C29.8391 36.1069 30.2372 35.7086 30.2372 35.2175V23.3005C30.2372 22.8092 29.8391 22.4111 29.3478 22.4111ZM16.5415 24.1899H21.6106V26.3502H16.5415V24.1899ZM21.6106 34.3281H16.5415V32.1678H21.6106V34.3281ZM21.6106 30.3891H16.5415V28.1289H21.6106V30.3891ZM28.4585 34.3281H23.3894V32.1678H28.4585V34.3281ZM28.4585 30.3891H23.3894V28.1289H28.4585V30.3891ZM28.4585 26.3502H23.3894V24.1899H28.4585V26.3502Z" fill="#242424"/>
</svg>
