<svg width="28" height="28" viewBox="0 0 28 28" fill="none" xmlns="http://www.w3.org/2000/svg">
<g clip-path="url(#clip0_999_2560)">
<path d="M28 14C28 6.2686 21.7314 0 14 0C6.2686 0 0 6.2686 0 14C0 20.9872 5.11883 26.7794 11.8127 27.8307V18.0478H8.25707V14H11.8127V10.9149C11.8127 7.40655 13.9035 5.4673 17.1008 5.4673C18.6325 5.4673 20.2351 5.74096 20.2351 5.74096V9.18633H18.4691C16.7307 9.18633 16.1873 10.2652 16.1873 11.3736V14H20.0698L19.4496 18.0478H16.1873V27.8307C22.8812 26.7813 28 20.9892 28 14Z" fill="#1977F3"/>
<path d="M19.4503 18.0493L20.0705 14.0014H16.1881V11.3751C16.1881 10.2686 16.7295 9.18778 18.4699 9.18778H20.2359V5.74241C20.2359 5.74241 18.6333 5.46875 17.1016 5.46875C13.9043 5.46875 11.8134 7.40603 11.8134 10.9164V14.0014H8.25781V18.0493H11.8134V27.8321C12.5261 27.9444 13.2565 28.0014 14.0007 28.0014C14.7449 28.0014 15.4754 27.9424 16.1881 27.8321V18.0493H19.4503Z" fill="#FEFEFE"/>
</g>
<defs>
<clipPath id="clip0_999_2560">
<rect width="28" height="28" fill="white"/>
</clipPath>
</defs>
</svg>
