<svg width="20" height="20" viewBox="0 0 20 20" fill="none" xmlns="http://www.w3.org/2000/svg">
<path fill-rule="evenodd" clip-rule="evenodd" d="M9.99984 1.6665C5.39746 1.6665 1.6665 5.39746 1.6665 9.99984C1.6665 14.6022 5.39746 18.3332 9.99984 18.3332C14.6022 18.3332 18.3332 14.6022 18.3332 9.99984C18.3332 7.7897 17.4552 5.67008 15.8924 4.10728C14.3296 2.54448 12.21 1.6665 9.99984 1.6665ZM9.99984 16.6665C6.31794 16.6665 3.33317 13.6817 3.33317 9.99984C3.33317 6.31794 6.31794 3.33317 9.99984 3.33317C13.6817 3.33317 16.6665 6.31794 16.6665 9.99984C16.6665 11.7679 15.9641 13.4636 14.7139 14.7139C13.4636 15.9641 11.7679 16.6665 9.99984 16.6665ZM7.82454 6.41372C8.02361 6.30466 8.26616 6.31211 8.45817 6.43317L13.3332 9.4665C13.515 9.58293 13.6249 9.78395 13.6249 9.99984C13.6249 10.2157 13.515 10.4167 13.3332 10.5332L8.45817 13.5665C8.26616 13.6876 8.02361 13.695 7.82454 13.586C7.62547 13.4769 7.50118 13.2685 7.49984 13.0415V6.95817C7.50118 6.73119 7.62547 6.52277 7.82454 6.41372Z" fill="#242424"/>
</svg>
